<svg width="800" height="800" viewBox="0 0 800 800" fill="none" xmlns="http://www.w3.org/2000/svg">
<path d="M117.664 391.097C116.962 379.572 117.176 364.441 120.472 347.106C122.695 335.465 126.595 321.348 136.383 300.308C145.45 280.809 159.256 251.131 186.925 220.751C227.269 176.468 274.087 155.955 301.113 146.81C320.144 140.375 369.77 125.887 433.084 135.578C487.994 143.982 527.558 166.641 548.208 180.505H578.158C574.902 177.034 570.203 172.373 564.119 167.401C553.141 158.431 542.26 152.211 528.552 145.874C497.704 131.62 470.094 124.912 467.715 124.347C441.82 118.185 399.994 108.24 346.039 115.923C329.796 118.243 275.803 127.369 219.684 166.465C169.551 201.388 143.715 242.122 137.319 252.574C100.466 312.885 96.2147 371.948 96.1367 400.456L117.664 391.097Z" fill="url(#paint0_linear_2_4)" stroke="url(#paint1_linear_2_4)" stroke-width="1.94993" stroke-linecap="round" stroke-linejoin="round"/>
<path d="M182.324 490.035C184.898 484.809 187.355 481.143 189.812 477.516C189.812 477.516 193.458 472.115 197.67 466.967C203.929 459.304 218.183 446.025 238.716 431.654C232.788 438.518 226.86 445.381 220.933 452.245C220.406 452.83 217.267 456.34 217.657 461.605C218.027 466.538 221.225 469.463 221.869 470.028C213.854 476.073 200.419 488.026 191.918 507.467C186.672 519.459 180.94 532.562 186.302 545.841C194.55 566.277 222.454 570.664 225.612 571.112C232.086 572.048 237.604 571.658 241.524 571.112V592.64C227.972 594.785 217.481 592.542 211.573 590.768C192.308 584.957 169.864 568.48 168.519 549.585C168.031 542.819 170.001 531.958 171.911 521.389C172.574 517.743 173.276 514.994 173.666 513.551C174.407 510.821 175.168 508.481 176.474 504.893C179.185 497.386 180.55 493.642 182.324 490.035Z" fill="url(#paint2_linear_2_4)" stroke="url(#paint3_linear_2_4)" stroke-width="3.89985" stroke-linecap="round" stroke-linejoin="round"/>
<path d="M170.001 507.916C169.728 509.067 169.26 511.095 168.714 513.61C164.619 532.758 160.212 554.149 163.839 578.289C164.502 582.715 165.789 589.599 168.519 597.944C157.989 582.052 142.741 563.021 127.102 533.129C124.002 527.201 115.481 507.312 111.132 493.818C105.185 475.43 103.508 461.859 103.235 456.614C102.962 451.251 101.324 444.388 101.48 441.17L124.528 435.086C125.035 445.324 126.361 457.004 129.208 469.717C134.999 495.651 144.925 516.125 153.543 530.555C155.688 524.725 158.165 518.777 161.031 512.771C161.304 512.206 166.081 502.339 172.555 492.044C171.951 495.807 171.346 499.551 170.742 503.314C170.488 504.835 170.235 506.376 170.001 507.916Z" fill="url(#paint4_linear_2_4)" stroke="url(#paint5_linear_2_4)" stroke-width="1.94993" stroke-linecap="round" stroke-linejoin="round"/>
<path d="M299.554 587.025L258.371 627.271V264.585L529.801 605.744H470.835L299.554 388.6V587.025Z" fill="url(#paint6_linear_2_4)" stroke="url(#paint7_linear_2_4)" stroke-width="1.94993" stroke-linecap="round" stroke-linejoin="round"/>
<path d="M261.181 231.358H317.339L492.364 445.928V260.373L534.482 217.318V570.177L261.181 231.358Z" fill="url(#paint8_linear_2_4)" stroke="url(#paint9_linear_2_4)" stroke-width="1.46244" stroke-linecap="round" stroke-linejoin="round"/>
<path d="M637.436 247.27L631.82 277.221C635.057 282.525 638.197 288.14 641.18 294.068C662.395 336.362 667.075 378.422 666.451 411.064L688.914 398.896C689.148 393.144 687.335 368.38 686.106 362.394C676.864 317.682 664.969 293.464 649.604 263.181L637.436 247.27Z" fill="url(#paint10_linear_2_4)" stroke="url(#paint11_linear_2_4)" stroke-width="1.94993" stroke-linecap="round" stroke-linejoin="round"/>
<path d="M666.706 423.368L688.935 411.064C689.227 416.933 689.422 425.337 688.935 435.399C683.943 537.283 617.353 607.967 600.935 624.464C583.678 641.799 540.214 684.366 468.028 703.085C454.885 706.497 389.738 722.35 311.722 698.405C280.835 688.928 256.87 675.942 240.588 665.646L234.973 660.03L256.5 650.671C259.698 652.484 264.534 655.156 270.539 658.159C289.961 667.85 341.205 692.633 407.19 689.045C449.796 686.725 480.78 673.543 498.915 665.646C556.769 640.434 590.678 603.6 597.191 596.385C648.162 539.837 660.817 476.211 664.58 448.503L666.706 423.368Z" fill="url(#paint12_linear_2_4)" stroke="url(#paint13_linear_2_4)" stroke-width="1.94993" stroke-linecap="round" stroke-linejoin="round"/>
<path d="M546.648 268.797C546.648 262.869 546.648 256.941 546.648 251.014C551.055 249.415 557.86 247.484 566.304 247.27C572.446 247.114 591.867 246.626 604.678 260.373C610.996 267.179 613.102 274.627 614.038 278.157C615.91 285.137 617.938 299.06 606.55 324.019C592.764 354.223 570.925 375.165 555.072 387.664L552.264 382.049C555.443 379.397 560.122 375.302 565.368 369.881C586.817 347.691 594.597 327.139 597.19 319.339C601.695 305.826 600.817 300.074 599.998 296.876C597.307 286.522 589.274 280.594 585.959 278.157C573.967 269.323 560.766 269.46 556.008 269.733L546.648 268.797Z" fill="url(#paint14_linear_2_4)" stroke="url(#paint15_linear_2_4)" stroke-width="3.89985" stroke-linecap="round" stroke-linejoin="round"/>
<path d="M558.465 428.613C558.348 435.282 558.231 441.95 558.114 448.619C565.153 443.53 574.747 436.12 585.355 426.253C596.976 415.451 605.653 407.456 614.136 394.314C625.816 376.218 629.755 360.19 630.632 356.407C634.2 341.042 632.874 331.682 632.387 328.679C631.275 321.913 629.17 316.531 627.473 312.885C627.98 317.896 628.37 325.364 627.473 334.295C624.119 367.795 605.965 390.16 600.447 396.771C590.308 408.919 580.031 416.231 575.664 419.136C569.073 423.543 563.067 426.565 558.465 428.613Z" fill="url(#paint16_linear_2_4)" stroke="url(#paint17_linear_2_4)" stroke-width="3.89985" stroke-linecap="round" stroke-linejoin="round"/>
<path d="M209.584 501.969C209.623 502.164 209.701 502.456 209.779 502.807C209.779 502.807 210.929 507.311 213.094 511.445C218.671 522.111 227.835 526.889 227.835 526.889C230.195 528.117 234.251 529.853 239.769 530.399V525.134C238.053 524.958 235.538 524.529 232.749 523.379C228.693 521.702 226.119 519.362 223.974 517.412C222.707 516.262 220.543 514.273 218.359 511.094C215.941 507.584 214.576 504.192 213.796 501.618L209.584 501.969Z" fill="url(#paint18_linear_2_4)" stroke="url(#paint19_linear_2_4)" stroke-width="0.974963" stroke-linecap="round" stroke-linejoin="round"/>
<path d="M309.616 509.788L311.02 516.008L334.887 506.531L356.999 495.3L361.562 491.088L341.907 498.459L309.616 509.788Z" fill="url(#paint20_linear_2_4)" stroke="url(#paint21_linear_2_4)" stroke-width="0.974963" stroke-linecap="round" stroke-linejoin="round"/>
<path d="M300.685 552.861L316.284 557.424C318.955 556.722 321.646 555.961 324.357 555.142C345.513 548.727 363.843 539.777 379.462 530.047L378.955 524.431C373.475 527.629 367.665 530.807 361.561 533.908C348.048 540.791 335.062 546.309 322.953 550.755L300.685 552.861Z" fill="url(#paint22_linear_2_4)" stroke="url(#paint23_linear_2_4)" stroke-width="0.974963" stroke-linecap="round" stroke-linejoin="round"/>
<path d="M78.3154 425.356L79.7193 432.044L234.972 358.318L239.769 349.211L78.3154 425.356Z" fill="url(#paint24_linear_2_4)" stroke="url(#paint25_linear_2_4)" stroke-width="1.94993" stroke-linecap="round" stroke-linejoin="round"/>
<path d="M249.129 396.556C248.973 404.2 248.817 411.843 248.661 419.487C239.73 421.164 232.165 421.573 226.549 421.593C212.568 421.612 186.77 421.671 174.954 405.448C171.97 401.372 170.664 397.316 170.04 394.918C174.096 397.18 178.152 399.442 182.208 401.704C187.238 403.751 191.606 405.058 194.843 405.916C199.269 407.066 202.74 407.982 207.479 408.255C212.392 408.528 215.961 407.963 220.114 407.319C229.435 405.857 236.045 403.205 237.429 402.64C240.608 401.333 244.683 399.403 249.129 396.556Z" fill="url(#paint26_linear_2_4)" stroke="url(#paint27_linear_2_4)" stroke-width="2.92489" stroke-linecap="round" stroke-linejoin="round"/>
<path d="M160.562 351.63C163.058 343.265 165.846 336.459 168.166 331.39C171.364 324.389 173.665 319.456 178.345 313.84C182.284 309.122 186.047 306.138 187.471 305.066C191.566 301.946 194.003 301.029 197.298 299.099C207.204 293.327 213.132 285.41 215.784 281.901C221.926 273.73 220.464 271.605 225.728 265.053C231.305 258.111 238.032 254.192 242.927 251.95C233.626 253.588 220.951 257.039 207.477 264.585C194.958 271.624 186.808 279.385 183.61 282.603C174.094 292.157 168.829 301.088 165.71 306.47C162.668 311.695 158.885 318.325 155.882 327.88C153.562 335.29 150.754 344.123 151.67 355.608C152.216 362.491 153.893 368.029 155.277 371.675C156.525 374.62 157.793 377.564 159.041 380.528C159.548 370.895 160.055 361.263 160.562 351.63Z" fill="url(#paint28_linear_2_4)"/>
<path d="M223.837 261.231C223.447 261.68 223.057 262.148 222.686 262.596C219.781 266.204 218.65 268.719 217.578 271.156C216.564 273.418 215.53 275.758 212.664 279.541C210.031 283.051 204.552 290.324 195.329 295.706C194.413 296.252 193.555 296.7 192.716 297.149C190.513 298.319 188.251 299.547 185.111 301.926C181.66 304.559 178.287 307.796 175.362 311.305C170.253 317.409 167.777 322.849 164.637 329.732C161.595 336.381 158.982 343.362 156.837 350.479L156.701 350.928L156.681 351.396L156.213 360.307C155.921 358.63 155.706 356.953 155.57 355.257C154.712 344.552 157.305 336.342 159.606 329.011C162.551 319.671 166.334 313.138 169.083 308.381C171.852 303.603 177.019 294.712 186.379 285.313C192.95 278.722 200.906 272.716 209.388 267.959C214.029 265.385 218.865 263.123 223.837 261.231ZM242.927 251.95C233.626 253.588 220.951 257.039 207.477 264.585C194.958 271.624 186.808 279.385 183.61 282.603C174.094 292.157 168.829 301.088 165.71 306.47C162.668 311.695 158.885 318.325 155.882 327.88C153.562 335.29 150.754 344.123 151.67 355.608C152.216 362.491 153.893 368.029 155.277 371.675C156.525 374.62 157.793 377.564 159.041 380.528C159.548 370.895 160.055 361.263 160.562 351.63C163.058 343.265 165.846 336.459 168.166 331.39C171.364 324.389 173.665 319.456 178.345 313.84C182.284 309.122 186.047 306.138 187.471 305.066C191.566 301.946 194.003 301.029 197.298 299.099C207.204 293.327 213.132 285.41 215.784 281.901C221.926 273.73 220.464 271.605 225.728 265.053C231.305 258.111 238.032 254.192 242.927 251.95Z" fill="url(#paint29_linear_2_4)"/>
<path d="M256.499 213.107C261.803 209.987 269.583 205.717 279.43 201.524C289.882 197.078 302.322 191.775 318.39 189.942C332.39 188.343 343.173 190.078 350.68 191.346C386.735 197.41 418.05 216.909 432.46 226.795C430.608 224.397 427.8 221.023 424.037 217.319C407.794 201.349 389.874 195.362 376.302 190.995C365.149 187.407 350.7 182.902 331.025 183.273C331.025 183.273 310.96 183.741 289.609 191.346C282.336 193.939 273.112 198.872 273.112 198.872C264.689 204.625 265.196 204.488 265.196 204.488C262.992 206.263 259.853 209.051 256.499 213.107Z" fill="url(#paint30_linear_2_4)" stroke="url(#paint31_linear_2_4)" stroke-width="0.974963" stroke-linecap="round" stroke-linejoin="round"/>
<path d="M370.336 270.668C370.921 273.008 371.506 275.348 372.091 277.688C375.659 275.426 380.573 272.365 386.481 268.914C390.927 266.32 406.137 257.526 430.004 246.45C439.246 242.161 455.236 234.79 477.036 226.795C505.875 216.227 522.196 210.221 544.776 207.491C558.757 205.794 575.644 205.287 594.967 207.842V197.312C588.786 196.396 579.953 195.382 569.345 195.206C550.568 194.894 527.714 197.254 493.181 208.895C442.054 226.132 398.259 252.593 376.303 266.808L370.336 270.668Z" fill="url(#paint32_linear_2_4)" stroke="url(#paint33_linear_2_4)" stroke-width="1.94993" stroke-linecap="round" stroke-linejoin="round"/>
<path d="M475.632 275.934C475.632 278.741 475.632 281.549 475.632 284.357C473.077 285.118 470.503 285.937 467.91 286.814C444.16 294.906 424.271 306.586 407.891 319.105L404.03 315.244C409.646 311.247 415.593 307.249 421.931 303.311C438.758 292.839 455.04 284.728 470.016 278.391L475.632 275.934Z" fill="url(#paint34_linear_2_4)" stroke="url(#paint35_linear_2_4)" stroke-width="0.974963" stroke-linecap="round" stroke-linejoin="round"/>
<path d="M482.652 317.447C482.652 319.397 482.652 321.328 482.652 323.278C480.761 323.804 478.85 324.37 476.939 324.974C459.351 330.57 444.629 338.662 432.5 347.34L429.634 344.668C433.787 341.899 438.194 339.13 442.893 336.401C455.353 329.147 467.404 323.531 478.499 319.144L482.652 317.447Z" fill="url(#paint36_linear_2_4)" stroke="url(#paint37_linear_2_4)" stroke-width="0.974963" stroke-linecap="round" stroke-linejoin="round"/>
<path d="M544.776 226.795C562.872 227.634 575.702 223.987 584.087 220.477C593.33 216.617 596.664 213.126 610.411 207.491C613.238 206.321 619.771 203.942 636.735 199.067C652.217 194.622 665.126 190.917 681.661 188.538C692.249 187.017 706.835 185.691 724.482 186.432C719.704 187.504 708.863 188.304 701.316 189.942C689.987 192.399 678.444 193.14 667.622 196.961C658.126 200.315 638.938 205.834 610.762 218.723C600.505 223.422 598.926 226.6 591.341 229.779C581.63 233.854 572.738 234.731 566.889 234.868C559.518 232.177 552.147 229.486 544.776 226.795Z" fill="url(#paint38_linear_2_4)" stroke="url(#paint39_linear_2_4)" stroke-width="0.974963" stroke-linecap="round" stroke-linejoin="round"/>
<path d="M228.888 486.525L224.676 496.002L228.888 505.829L233.099 496.177L228.888 486.525Z" fill="#FCF3A5"/>
<path d="M231.344 600.947L228.888 608.669L220.464 611.126L228.888 612.53L231.344 620.252L233.099 612.881L241.523 611.009L233.099 609.02L231.344 600.947Z" fill="#FCF3A5"/>
<path d="M370.824 203.162L367.431 213.36L355.771 216.597L367.431 218.45L370.824 228.628L373.242 218.917L384.902 216.441L373.242 213.809L370.824 203.162Z" fill="#FCF3A5" stroke="#FCF3A5" stroke-width="0.974963" stroke-linecap="round" stroke-linejoin="round"/>
<path d="M224.111 221.161L221.303 228.707L211.748 231.105L221.303 232.47L224.111 239.997L226.1 232.802L235.674 230.988L226.1 229.038L224.111 221.161Z" fill="#FCF3A5" stroke="#FCF3A5" stroke-width="0.974963" stroke-linecap="round" stroke-linejoin="round"/>
<path d="M199.405 349.114C208.419 349.114 215.726 341.807 215.726 332.794C215.726 323.78 208.419 316.473 199.405 316.473C190.391 316.473 183.084 323.78 183.084 332.794C183.084 341.807 190.391 349.114 199.405 349.114Z" stroke="url(#paint40_linear_2_4)" stroke-width="1.94993" stroke-linecap="round" stroke-linejoin="round"/>
<path d="M82.0977 397.706C86.0177 397.706 89.1955 394.528 89.1955 390.608C89.1955 386.688 86.0177 383.511 82.0977 383.511C78.1778 383.511 75 386.688 75 390.608C75 394.528 78.1778 397.706 82.0977 397.706Z" stroke="url(#paint41_linear_2_4)" stroke-width="1.94993" stroke-linecap="round" stroke-linejoin="round"/>
<path d="M330.812 486.799C335.927 486.799 340.074 482.652 340.074 477.537C340.074 472.422 335.927 468.275 330.812 468.275C325.697 468.275 321.55 472.422 321.55 477.537C321.55 482.652 325.697 486.799 330.812 486.799Z" stroke="url(#paint42_linear_2_4)" stroke-width="1.94993" stroke-linecap="round" stroke-linejoin="round"/>
<path d="M451.278 198.872C458.612 198.872 464.557 192.927 464.557 185.593C464.557 178.259 458.612 172.314 451.278 172.314C443.944 172.314 437.999 178.259 437.999 185.593C437.999 192.927 443.944 198.872 451.278 198.872Z" stroke="url(#paint43_linear_2_4)" stroke-width="1.94993" stroke-linecap="round" stroke-linejoin="round"/>
<path d="M390.596 179.568C395.388 179.568 399.273 175.683 399.273 170.891C399.273 166.098 395.388 162.213 390.596 162.213C385.804 162.213 381.919 166.098 381.919 170.891C381.919 175.683 385.804 179.568 390.596 179.568Z" stroke="url(#paint44_linear_2_4)" stroke-width="1.94993" stroke-linecap="round" stroke-linejoin="round"/>
<path d="M585.978 570.957C604.285 570.957 619.127 556.116 619.127 537.808C619.127 519.501 604.285 504.66 585.978 504.66C567.67 504.66 552.829 519.501 552.829 537.808C552.829 556.116 567.67 570.957 585.978 570.957Z" stroke="url(#paint45_linear_2_4)" stroke-width="1.94993" stroke-linecap="round" stroke-linejoin="round"/>
<path d="M348.224 663.423C355.59 663.423 361.562 657.452 361.562 650.086C361.562 642.719 355.59 636.748 348.224 636.748C340.858 636.748 334.887 642.719 334.887 650.086C334.887 657.452 340.858 663.423 348.224 663.423Z" stroke="url(#paint46_linear_2_4)" stroke-width="1.94993" stroke-linecap="round" stroke-linejoin="round"/>
<path d="M391.921 636.747C397.058 636.747 401.222 632.583 401.222 627.446C401.222 622.309 397.058 618.145 391.921 618.145C386.784 618.145 382.62 622.309 382.62 627.446C382.62 632.583 386.784 636.747 391.921 636.747Z" stroke="url(#paint47_linear_2_4)" stroke-width="1.94993" stroke-linecap="round" stroke-linejoin="round"/>
<path d="M451.588 642.012C456.338 642.012 460.188 638.162 460.188 633.413C460.188 628.663 456.338 624.813 451.588 624.813C446.839 624.813 442.989 628.663 442.989 633.413C442.989 638.162 446.839 642.012 451.588 642.012Z" stroke="url(#paint48_linear_2_4)" stroke-width="1.94993" stroke-linecap="round" stroke-linejoin="round"/>
<path d="M219.119 697.273C223.48 697.273 227.016 693.738 227.016 689.376C227.016 685.015 223.48 681.479 219.119 681.479C214.757 681.479 211.222 685.015 211.222 689.376C211.222 693.738 214.757 697.273 219.119 697.273Z" stroke="url(#paint49_linear_2_4)" stroke-width="1.94993" stroke-linecap="round" stroke-linejoin="round"/>
<path d="M563.378 690.527C567.621 690.527 571.061 687.087 571.061 682.844C571.061 678.601 567.621 675.161 563.378 675.161C559.135 675.161 555.695 678.601 555.695 682.844C555.695 687.087 559.135 690.527 563.378 690.527Z" stroke="url(#paint50_linear_2_4)" stroke-width="1.94993" stroke-linecap="round" stroke-linejoin="round"/>
<path d="M157.794 643.729C162.037 643.729 165.477 640.289 165.477 636.046C165.477 631.803 162.037 628.363 157.794 628.363C153.551 628.363 150.111 631.803 150.111 636.046C150.111 640.289 153.551 643.729 157.794 643.729Z" stroke="url(#paint51_linear_2_4)" stroke-width="1.94993" stroke-linecap="round" stroke-linejoin="round"/>
<path d="M516.347 718.528C520.224 718.528 523.367 715.385 523.367 711.509C523.367 707.632 520.224 704.489 516.347 704.489C512.47 704.489 509.327 707.632 509.327 711.509C509.327 715.385 512.47 718.528 516.347 718.528Z" stroke="url(#paint52_linear_2_4)" stroke-width="1.94993" stroke-linecap="round" stroke-linejoin="round"/>
<path d="M619.633 683.253C628.797 683.253 636.227 675.824 636.227 666.659C636.227 657.495 628.797 650.065 619.633 650.065C610.468 650.065 603.039 657.495 603.039 666.659C603.039 675.824 610.468 683.253 619.633 683.253Z" stroke="url(#paint53_linear_2_4)" stroke-width="1.94993" stroke-linecap="round" stroke-linejoin="round"/>
<path d="M122.189 622.337C131.353 622.337 138.782 614.908 138.782 605.743C138.782 596.579 131.353 589.149 122.189 589.149C113.024 589.149 105.595 596.579 105.595 605.743C105.595 614.908 113.024 622.337 122.189 622.337Z" stroke="url(#paint54_linear_2_4)" stroke-width="1.94993" stroke-linecap="round" stroke-linejoin="round"/>
<path d="M137.73 179.607C146.313 179.607 153.271 172.649 153.271 164.066C153.271 155.483 146.313 148.525 137.73 148.525C129.147 148.525 122.189 155.483 122.189 164.066C122.189 172.649 129.147 179.607 137.73 179.607Z" stroke="url(#paint55_linear_2_4)" stroke-width="1.94993" stroke-linecap="round" stroke-linejoin="round"/>
<path d="M616.807 169.077C624.421 169.077 630.593 162.905 630.593 155.291C630.593 147.678 624.421 141.505 616.807 141.505C609.194 141.505 603.021 147.678 603.021 155.291C603.021 162.905 609.194 169.077 616.807 169.077Z" stroke="url(#paint56_linear_2_4)" stroke-width="1.94993" stroke-linecap="round" stroke-linejoin="round"/>
<path d="M347.01 103.305C352.698 102.382 356.558 97.0144 355.634 91.3166C354.709 85.6188 349.349 81.7481 343.662 82.6711C337.975 83.5941 334.114 88.9613 335.039 94.6591C335.963 100.357 341.323 104.228 347.01 103.305Z" stroke="url(#paint57_linear_2_4)" stroke-width="1.94993" stroke-linecap="round" stroke-linejoin="round"/>
<path d="M415.615 562.065C412.202 564.269 407.386 567.35 401.575 570.957C393.015 576.261 374.705 587.551 352.437 599.036C330.812 610.189 313.965 617.151 297.683 623.839C270.872 634.837 251.84 642.656 224.678 650.046C208.942 654.336 185.757 660.517 154.481 663.149C136.658 664.651 121.566 664.553 110.49 664.085L142.313 659.874C151.38 658.957 164.718 657.358 180.688 654.375C254.785 640.569 306.126 612.198 338.398 594.356C360.588 582.091 376.714 570.82 391.28 558.321C395.16 554.987 402.004 548.884 403.915 547.09L415.615 562.065Z" fill="url(#paint58_linear_2_4)" stroke="url(#paint59_linear_2_4)" stroke-width="1.94993" stroke-linecap="round" stroke-linejoin="round"/>
<path d="M624.06 481.572L621.603 489.294L613.18 491.751L621.603 493.155L624.06 500.877L625.815 493.506L634.239 491.653L625.815 489.645L624.06 481.572Z" fill="#FCF3A5"/>
<path d="M639.659 450.374L637.202 458.095L628.778 460.552L637.202 461.956L639.659 469.678L641.414 462.307L649.837 460.455L641.414 458.446L639.659 450.374Z" fill="#FCF3A5"/>
<path d="M603.097 454L600.718 461.176L592.567 463.477L600.718 464.783L603.097 471.959L604.813 465.095L612.964 463.36L604.813 461.507L603.097 454Z" fill="#FCF3A5"/>
<path d="M453.598 355.003L449.386 364.48L453.598 374.308L457.809 364.656L453.598 355.003Z" fill="#FCF3A5"/>
<path d="M445.798 596.793L441.586 606.27L445.798 616.098L450.01 606.446L445.798 596.793Z" fill="#FCF3A5"/>
<path d="M608.091 426.779L605.926 433.175L598.478 435.222L605.926 436.392L608.091 442.788L609.651 436.665L617.099 435.125L609.651 433.468L608.091 426.779Z" fill="#FCF3A5"/>
<defs>
<linearGradient id="paint0_linear_2_4" x1="96.1367" y1="256.792" x2="578.158" y2="256.792" gradientUnits="userSpaceOnUse">
<stop stop-color="#EFF4E3"/>
<stop offset="0.0786" stop-color="#EEDCD8"/>
<stop offset="0.2535" stop-color="#E995B1"/>
<stop offset="0.299" stop-color="#E77EA4"/>
<stop offset="0.3905" stop-color="#EC9BA9"/>
<stop offset="0.5317" stop-color="#F3BDA9"/>
<stop offset="0.6673" stop-color="#F9D6A2"/>
<stop offset="0.794" stop-color="#FDE599"/>
<stop offset="0.9085" stop-color="#FFEE92"/>
<stop offset="1" stop-color="#FFF190"/>
</linearGradient>
<linearGradient id="paint1_linear_2_4" x1="95.1618" y1="256.792" x2="579.133" y2="256.792" gradientUnits="userSpaceOnUse">
<stop stop-color="#733685"/>
<stop offset="0.5" stop-color="#97D3F3"/>
<stop offset="1" stop-color="#723082"/>
</linearGradient>
<linearGradient id="paint2_linear_2_4" x1="168.445" y1="512.584" x2="241.524" y2="512.584" gradientUnits="userSpaceOnUse">
<stop stop-color="#E5007F"/>
<stop offset="0.00919541" stop-color="#E10F82"/>
<stop offset="0.0638" stop-color="#C84190"/>
<stop offset="0.1211" stop-color="#B1599E"/>
<stop offset="0.1807" stop-color="#9A67A8"/>
<stop offset="0.2433" stop-color="#866FAF"/>
<stop offset="0.3101" stop-color="#7573B4"/>
<stop offset="0.3842" stop-color="#6976B7"/>
<stop offset="0.4799" stop-color="#6576B8"/>
<stop offset="0.5388" stop-color="#6F74B5"/>
<stop offset="0.6293" stop-color="#866FAF"/>
<stop offset="0.7402" stop-color="#A461A4"/>
<stop offset="0.8672" stop-color="#C54592"/>
<stop offset="1" stop-color="#E6007E"/>
</linearGradient>
<linearGradient id="paint3_linear_2_4" x1="166.495" y1="512.584" x2="243.474" y2="512.584" gradientUnits="userSpaceOnUse">
<stop stop-color="#733585"/>
<stop offset="1" stop-color="#97D3F3"/>
</linearGradient>
<linearGradient id="paint4_linear_2_4" x1="85.6425" y1="491.479" x2="189.371" y2="534.135" gradientUnits="userSpaceOnUse">
<stop stop-color="#EFF4E3"/>
<stop offset="0.0786" stop-color="#EEDCD8"/>
<stop offset="0.2535" stop-color="#E995B1"/>
<stop offset="0.299" stop-color="#E77EA4"/>
<stop offset="0.3905" stop-color="#EC9BA9"/>
<stop offset="0.5317" stop-color="#F3BDA9"/>
<stop offset="0.6673" stop-color="#F9D6A2"/>
<stop offset="0.794" stop-color="#FDE599"/>
<stop offset="0.9085" stop-color="#FFEE92"/>
<stop offset="1" stop-color="#FFF190"/>
</linearGradient>
<linearGradient id="paint5_linear_2_4" x1="100.494" y1="516.515" x2="173.523" y2="516.515" gradientUnits="userSpaceOnUse">
<stop stop-color="#733585"/>
<stop offset="1" stop-color="#97D3F3"/>
</linearGradient>
<linearGradient id="paint6_linear_2_4" x1="182.556" y1="400.32" x2="554.321" y2="623.98" gradientUnits="userSpaceOnUse">
<stop offset="0.0222" stop-color="#F9FCFC"/>
<stop offset="0.181" stop-color="#E2E5F2"/>
<stop offset="0.5205" stop-color="#A8ABD5"/>
<stop offset="1" stop-color="#4F5AA5"/>
</linearGradient>
<linearGradient id="paint7_linear_2_4" x1="257.396" y1="445.931" x2="530.776" y2="445.931" gradientUnits="userSpaceOnUse">
<stop stop-color="#97D3F3"/>
<stop offset="0.4221" stop-color="#6576B8"/>
<stop offset="0.4416" stop-color="#7274B5"/>
<stop offset="0.5421" stop-color="#A063A5"/>
<stop offset="0.6417" stop-color="#BD4E97"/>
<stop offset="0.7388" stop-color="#CF378C"/>
<stop offset="0.8324" stop-color="#DC1E84"/>
<stop offset="0.9212" stop-color="#E3007F"/>
<stop offset="1" stop-color="#E6007E"/>
</linearGradient>
<linearGradient id="paint8_linear_2_4" x1="393.644" y1="227.389" x2="570.235" y2="435.979" gradientUnits="userSpaceOnUse">
<stop offset="0.0222" stop-color="#F9FCFC"/>
<stop offset="0.1537" stop-color="#F5F8FB"/>
<stop offset="0.2942" stop-color="#EAEDF6"/>
<stop offset="0.4391" stop-color="#D7D9ED"/>
<stop offset="0.587" stop-color="#BDBFE0"/>
<stop offset="0.7371" stop-color="#9A9ECE"/>
<stop offset="0.887" stop-color="#7177B7"/>
<stop offset="1" stop-color="#4F5AA5"/>
</linearGradient>
<linearGradient id="paint9_linear_2_4" x1="260.449" y1="393.748" x2="535.213" y2="393.748" gradientUnits="userSpaceOnUse">
<stop stop-color="#4F5AA5"/>
<stop offset="1" stop-color="#F9FCFC"/>
</linearGradient>
<linearGradient id="paint10_linear_2_4" x1="623.763" y1="295.879" x2="684.219" y2="367.29" gradientUnits="userSpaceOnUse">
<stop stop-color="#FFF190"/>
<stop offset="0.054" stop-color="#FEEA98"/>
<stop offset="0.2409" stop-color="#F7D2AB"/>
<stop offset="0.4248" stop-color="#F1BDB4"/>
<stop offset="0.6026" stop-color="#EEACB7"/>
<stop offset="0.7715" stop-color="#ECA1B7"/>
<stop offset="0.9221" stop-color="#EB9EB7"/>
</linearGradient>
<linearGradient id="paint11_linear_2_4" x1="630.845" y1="329.167" x2="689.911" y2="329.167" gradientUnits="userSpaceOnUse">
<stop stop-color="#733585"/>
<stop offset="0.5075" stop-color="#97D3F3"/>
<stop offset="0.5528" stop-color="#8EB7DF"/>
<stop offset="0.6073" stop-color="#8699C9"/>
<stop offset="0.6642" stop-color="#817DB5"/>
<stop offset="0.7227" stop-color="#7C67A5"/>
<stop offset="0.7834" stop-color="#795598"/>
<stop offset="0.8473" stop-color="#774890"/>
<stop offset="0.9164" stop-color="#75408B"/>
<stop offset="1" stop-color="#753E8A"/>
</linearGradient>
<linearGradient id="paint12_linear_2_4" x1="454.415" y1="526.641" x2="539.938" y2="627.662" gradientUnits="userSpaceOnUse">
<stop stop-color="#FFF190"/>
<stop offset="0.00570155" stop-color="#FFEE93"/>
<stop offset="0.0488" stop-color="#F7D1A3"/>
<stop offset="0.0919" stop-color="#F1B6A9"/>
<stop offset="0.1343" stop-color="#ED9FAA"/>
<stop offset="0.1759" stop-color="#EA8DA7"/>
<stop offset="0.2162" stop-color="#E882A5"/>
<stop offset="0.2538" stop-color="#E77EA4"/>
<stop offset="0.3332" stop-color="#E78AAA"/>
<stop offset="0.5221" stop-color="#E6A1B5"/>
<stop offset="0.6307" stop-color="#E6A9B9"/>
<stop offset="0.6962" stop-color="#E9C5C9"/>
<stop offset="0.777" stop-color="#ECDFD8"/>
<stop offset="0.8417" stop-color="#EEEEE0"/>
<stop offset="0.8819" stop-color="#EFF4E3"/>
</linearGradient>
<linearGradient id="paint13_linear_2_4" x1="233.998" y1="561.225" x2="690.209" y2="561.225" gradientUnits="userSpaceOnUse">
<stop stop-color="#97D3F3"/>
<stop offset="1" stop-color="#733585"/>
</linearGradient>
<linearGradient id="paint14_linear_2_4" x1="543.484" y1="281.002" x2="588.064" y2="333.661" gradientUnits="userSpaceOnUse">
<stop stop-color="#EC6BA5"/>
<stop offset="0.3141" stop-color="#9F77B3"/>
<stop offset="0.4925" stop-color="#6576B8"/>
<stop offset="0.5499" stop-color="#6E77B7"/>
<stop offset="0.6383" stop-color="#8478B6"/>
<stop offset="0.7465" stop-color="#A379B3"/>
<stop offset="0.8704" stop-color="#C877AF"/>
<stop offset="1" stop-color="#ED71A8"/>
</linearGradient>
<linearGradient id="paint15_linear_2_4" x1="544.699" y1="317.444" x2="617.444" y2="317.444" gradientUnits="userSpaceOnUse">
<stop stop-color="#2EBDEF"/>
<stop offset="0.0521" stop-color="#47BDED"/>
<stop offset="0.1323" stop-color="#72BAE8"/>
<stop offset="0.2305" stop-color="#9EB2DD"/>
<stop offset="0.343" stop-color="#C89EC9"/>
<stop offset="0.4661" stop-color="#ED71A8"/>
<stop offset="0.4673" stop-color="#ED71A8"/>
<stop offset="1" stop-color="#6A77B7"/>
</linearGradient>
<linearGradient id="paint16_linear_2_4" x1="581.106" y1="366.952" x2="605.301" y2="395.531" gradientUnits="userSpaceOnUse">
<stop offset="0.2915" stop-color="#AE9A8A"/>
<stop offset="0.5086" stop-color="#A5958A"/>
<stop offset="0.8576" stop-color="#8B8886"/>
<stop offset="0.9296" stop-color="#848584"/>
</linearGradient>
<linearGradient id="paint17_linear_2_4" x1="556.164" y1="380.752" x2="634.978" y2="380.752" gradientUnits="userSpaceOnUse">
<stop offset="0.0704" stop-color="#848584"/>
<stop offset="0.1424" stop-color="#8B8886"/>
<stop offset="0.4914" stop-color="#A5958A"/>
<stop offset="0.7085" stop-color="#AE9A8A"/>
</linearGradient>
<linearGradient id="paint18_linear_2_4" x1="216.052" y1="506.734" x2="232.771" y2="526.483" gradientUnits="userSpaceOnUse">
<stop stop-color="#E5007F"/>
<stop offset="0.3061" stop-color="#9F64A6"/>
<stop offset="0.4799" stop-color="#6576B8"/>
<stop offset="0.5388" stop-color="#6F74B5"/>
<stop offset="0.6293" stop-color="#866FAF"/>
<stop offset="0.7402" stop-color="#A461A4"/>
<stop offset="0.8672" stop-color="#C54592"/>
<stop offset="1" stop-color="#E6007E"/>
</linearGradient>
<linearGradient id="paint19_linear_2_4" x1="209.097" y1="516.008" x2="240.256" y2="516.008" gradientUnits="userSpaceOnUse">
<stop stop-color="#2EBDEF"/>
<stop offset="0.1341" stop-color="#34BAEC"/>
<stop offset="0.3403" stop-color="#43B0E4"/>
<stop offset="0.5928" stop-color="#539FD7"/>
<stop offset="0.8795" stop-color="#6484C2"/>
<stop offset="1" stop-color="#6A77B7"/>
</linearGradient>
<linearGradient id="paint20_linear_2_4" x1="330.625" y1="496.855" x2="338.565" y2="506.234" gradientUnits="userSpaceOnUse">
<stop stop-color="#E5007F"/>
<stop offset="0.3061" stop-color="#9F64A6"/>
<stop offset="0.4799" stop-color="#6576B8"/>
<stop offset="0.5388" stop-color="#6F74B5"/>
<stop offset="0.6293" stop-color="#866FAF"/>
<stop offset="0.7402" stop-color="#A461A4"/>
<stop offset="0.8672" stop-color="#C54592"/>
<stop offset="1" stop-color="#E6007E"/>
</linearGradient>
<linearGradient id="paint21_linear_2_4" x1="309.129" y1="503.548" x2="362.05" y2="503.548" gradientUnits="userSpaceOnUse">
<stop stop-color="#2EBDEF"/>
<stop offset="0.1341" stop-color="#34BAEC"/>
<stop offset="0.3403" stop-color="#43B0E4"/>
<stop offset="0.5928" stop-color="#539FD7"/>
<stop offset="0.8795" stop-color="#6484C2"/>
<stop offset="1" stop-color="#6A77B7"/>
</linearGradient>
<linearGradient id="paint22_linear_2_4" x1="334.595" y1="532.477" x2="348.184" y2="548.529" gradientUnits="userSpaceOnUse">
<stop stop-color="#E5007F"/>
<stop offset="0.3061" stop-color="#9F64A6"/>
<stop offset="0.4799" stop-color="#6576B8"/>
<stop offset="0.5388" stop-color="#6F74B5"/>
<stop offset="0.6293" stop-color="#866FAF"/>
<stop offset="0.7402" stop-color="#A461A4"/>
<stop offset="0.8672" stop-color="#C54592"/>
<stop offset="1" stop-color="#E6007E"/>
</linearGradient>
<linearGradient id="paint23_linear_2_4" x1="300.197" y1="540.928" x2="379.949" y2="540.928" gradientUnits="userSpaceOnUse">
<stop stop-color="#2EBDEF"/>
<stop offset="0.1341" stop-color="#34BAEC"/>
<stop offset="0.3403" stop-color="#43B0E4"/>
<stop offset="0.5928" stop-color="#539FD7"/>
<stop offset="0.8795" stop-color="#6484C2"/>
<stop offset="1" stop-color="#6A77B7"/>
</linearGradient>
<linearGradient id="paint24_linear_2_4" x1="78.3154" y1="390.618" x2="239.769" y2="390.618" gradientUnits="userSpaceOnUse">
<stop offset="0.1457" stop-color="#848584"/>
<stop offset="0.8141" stop-color="#C0A998"/>
</linearGradient>
<linearGradient id="paint25_linear_2_4" x1="77.3405" y1="390.618" x2="240.744" y2="390.618" gradientUnits="userSpaceOnUse">
<stop offset="0.1457" stop-color="#848584"/>
<stop offset="0.2366" stop-color="#9A938D"/>
<stop offset="0.336" stop-color="#AA9D92"/>
<stop offset="0.4491" stop-color="#B7A496"/>
<stop offset="0.5862" stop-color="#BEA897"/>
<stop offset="0.8141" stop-color="#C0A998"/>
</linearGradient>
<linearGradient id="paint26_linear_2_4" x1="170.04" y1="408.255" x2="249.129" y2="408.255" gradientUnits="userSpaceOnUse">
<stop stop-color="#6576B8"/>
<stop offset="0.0977" stop-color="#6E77B7"/>
<stop offset="0.2481" stop-color="#8478B6"/>
<stop offset="0.4322" stop-color="#A37AB4"/>
<stop offset="0.6411" stop-color="#C77AB1"/>
<stop offset="0.809" stop-color="#E477AC"/>
</linearGradient>
<linearGradient id="paint27_linear_2_4" x1="168.578" y1="408.255" x2="250.591" y2="408.255" gradientUnits="userSpaceOnUse">
<stop stop-color="#6576B8"/>
<stop offset="0.0923" stop-color="#6F74B5"/>
<stop offset="0.2342" stop-color="#866FAF"/>
<stop offset="0.4081" stop-color="#A461A4"/>
<stop offset="0.6071" stop-color="#C54592"/>
<stop offset="0.809" stop-color="#E5007E"/>
</linearGradient>
<linearGradient id="paint28_linear_2_4" x1="190.367" y1="331.494" x2="223.862" y2="170.597" gradientUnits="userSpaceOnUse">
<stop stop-color="#E5007E"/>
<stop offset="0.3189" stop-color="#9F64A5"/>
<stop offset="0.5" stop-color="#6576B8"/>
<stop offset="0.5566" stop-color="#6F74B5"/>
<stop offset="0.6436" stop-color="#866FAF"/>
<stop offset="0.7503" stop-color="#A461A4"/>
<stop offset="0.8724" stop-color="#C54592"/>
<stop offset="1" stop-color="#E6007E"/>
</linearGradient>
<linearGradient id="paint29_linear_2_4" x1="151.493" y1="316.239" x2="242.927" y2="316.239" gradientUnits="userSpaceOnUse">
<stop stop-color="#6576B8"/>
<stop offset="0.0923" stop-color="#6F74B5"/>
<stop offset="0.2342" stop-color="#866FAF"/>
<stop offset="0.4081" stop-color="#A461A4"/>
<stop offset="0.6071" stop-color="#C54592"/>
<stop offset="0.809" stop-color="#E5007E"/>
</linearGradient>
<linearGradient id="paint30_linear_2_4" x1="256.499" y1="205.023" x2="432.46" y2="205.023" gradientUnits="userSpaceOnUse">
<stop stop-color="#EC6BA5"/>
<stop offset="0.3141" stop-color="#9F77B3"/>
<stop offset="0.4925" stop-color="#6576B8"/>
<stop offset="0.5499" stop-color="#6E77B7"/>
<stop offset="0.6383" stop-color="#8478B6"/>
<stop offset="0.7465" stop-color="#A379B3"/>
<stop offset="0.8704" stop-color="#C877AF"/>
<stop offset="1" stop-color="#ED71A8"/>
</linearGradient>
<linearGradient id="paint31_linear_2_4" x1="256.012" y1="205.023" x2="432.948" y2="205.023" gradientUnits="userSpaceOnUse">
<stop stop-color="#E5007E"/>
<stop offset="0.4776" stop-color="#9F64A5"/>
<stop offset="0.7487" stop-color="#6576B8"/>
<stop offset="0.7772" stop-color="#6F74B5"/>
<stop offset="0.8209" stop-color="#866FAF"/>
<stop offset="0.8745" stop-color="#A461A4"/>
<stop offset="0.9359" stop-color="#C54592"/>
<stop offset="1" stop-color="#E6007E"/>
</linearGradient>
<linearGradient id="paint32_linear_2_4" x1="370.336" y1="236.435" x2="594.967" y2="236.435" gradientUnits="userSpaceOnUse">
<stop offset="0.3015" stop-color="#C0A998"/>
<stop offset="0.4236" stop-color="#B9A596"/>
<stop offset="0.6202" stop-color="#A49990"/>
<stop offset="0.8657" stop-color="#858585"/>
<stop offset="0.8693" stop-color="#848584"/>
</linearGradient>
<linearGradient id="paint33_linear_2_4" x1="369.361" y1="236.435" x2="595.942" y2="236.435" gradientUnits="userSpaceOnUse">
<stop offset="0.1457" stop-color="#848584"/>
<stop offset="0.2366" stop-color="#9A938D"/>
<stop offset="0.336" stop-color="#AA9D92"/>
<stop offset="0.4491" stop-color="#B7A496"/>
<stop offset="0.5862" stop-color="#BEA897"/>
<stop offset="0.8141" stop-color="#C0A998"/>
</linearGradient>
<linearGradient id="paint34_linear_2_4" x1="404.03" y1="297.519" x2="475.632" y2="297.519" gradientUnits="userSpaceOnUse">
<stop stop-color="#EC6BA5"/>
<stop offset="0.3189" stop-color="#9F77B3"/>
<stop offset="0.5" stop-color="#6576B8"/>
<stop offset="0.5566" stop-color="#6E77B7"/>
<stop offset="0.6436" stop-color="#8478B6"/>
<stop offset="0.7503" stop-color="#A379B3"/>
<stop offset="0.8724" stop-color="#C877AF"/>
<stop offset="1" stop-color="#ED71A8"/>
</linearGradient>
<linearGradient id="paint35_linear_2_4" x1="403.543" y1="297.519" x2="476.119" y2="297.519" gradientUnits="userSpaceOnUse">
<stop stop-color="#2EBDEF"/>
<stop offset="0.1341" stop-color="#34BAEC"/>
<stop offset="0.3403" stop-color="#43B0E4"/>
<stop offset="0.5928" stop-color="#539FD7"/>
<stop offset="0.8795" stop-color="#6484C2"/>
<stop offset="1" stop-color="#6A77B7"/>
</linearGradient>
<linearGradient id="paint36_linear_2_4" x1="429.645" y1="332.389" x2="482.652" y2="332.389" gradientUnits="userSpaceOnUse">
<stop stop-color="#EC6BA5"/>
<stop offset="0.3189" stop-color="#9F77B3"/>
<stop offset="0.5" stop-color="#6576B8"/>
<stop offset="0.5566" stop-color="#6E77B7"/>
<stop offset="0.6436" stop-color="#8478B6"/>
<stop offset="0.7503" stop-color="#A379B3"/>
<stop offset="0.8724" stop-color="#C877AF"/>
<stop offset="1" stop-color="#ED71A8"/>
</linearGradient>
<linearGradient id="paint37_linear_2_4" x1="429.157" y1="332.389" x2="483.14" y2="332.389" gradientUnits="userSpaceOnUse">
<stop stop-color="#2EBDEF"/>
<stop offset="0.1341" stop-color="#34BAEC"/>
<stop offset="0.3403" stop-color="#43B0E4"/>
<stop offset="0.5928" stop-color="#539FD7"/>
<stop offset="0.8795" stop-color="#6484C2"/>
<stop offset="1" stop-color="#6A77B7"/>
</linearGradient>
<linearGradient id="paint38_linear_2_4" x1="544.776" y1="210.544" x2="724.482" y2="210.544" gradientUnits="userSpaceOnUse">
<stop stop-color="#E5007F"/>
<stop offset="0.0659" stop-color="#E30380"/>
<stop offset="0.1401" stop-color="#DB2385"/>
<stop offset="0.2183" stop-color="#CE398D"/>
<stop offset="0.2992" stop-color="#BB5098"/>
<stop offset="0.3823" stop-color="#9E65A6"/>
<stop offset="0.466" stop-color="#7074B5"/>
<stop offset="0.4799" stop-color="#6576B8"/>
<stop offset="0.5388" stop-color="#6F74B5"/>
<stop offset="0.6293" stop-color="#866FAF"/>
<stop offset="0.7402" stop-color="#A461A4"/>
<stop offset="0.8672" stop-color="#C54592"/>
<stop offset="1" stop-color="#E6007E"/>
</linearGradient>
<linearGradient id="paint39_linear_2_4" x1="544.289" y1="210.544" x2="724.969" y2="210.544" gradientUnits="userSpaceOnUse">
<stop stop-color="#E6007E"/>
<stop offset="0.0272" stop-color="#E21B84"/>
<stop offset="0.077" stop-color="#D74B94"/>
<stop offset="0.1438" stop-color="#C27BB2"/>
<stop offset="0.2251" stop-color="#97A6D4"/>
<stop offset="0.3065" stop-color="#2EBDEF"/>
<stop offset="0.3255" stop-color="#33B1E6"/>
<stop offset="0.358" stop-color="#399FD9"/>
<stop offset="0.3943" stop-color="#3F8FCD"/>
<stop offset="0.4344" stop-color="#4481C2"/>
<stop offset="0.4802" stop-color="#4876BA"/>
<stop offset="0.5349" stop-color="#4A6EB4"/>
<stop offset="0.6073" stop-color="#4B69B0"/>
<stop offset="0.7688" stop-color="#4C68AF"/>
</linearGradient>
<linearGradient id="paint40_linear_2_4" x1="182.109" y1="332.794" x2="216.701" y2="332.794" gradientUnits="userSpaceOnUse">
<stop stop-color="#40C0F0"/>
<stop offset="1" stop-color="#AE6480"/>
</linearGradient>
<linearGradient id="paint41_linear_2_4" x1="74.0055" y1="390.618" x2="90.1704" y2="390.618" gradientUnits="userSpaceOnUse">
<stop stop-color="#40C0F0"/>
<stop offset="1" stop-color="#AE6480"/>
</linearGradient>
<linearGradient id="paint42_linear_2_4" x1="320.575" y1="477.537" x2="341.049" y2="477.537" gradientUnits="userSpaceOnUse">
<stop stop-color="#40C0F0"/>
<stop offset="1" stop-color="#AE6480"/>
</linearGradient>
<linearGradient id="paint43_linear_2_4" x1="437.024" y1="185.593" x2="465.532" y2="185.593" gradientUnits="userSpaceOnUse">
<stop stop-color="#AE6480"/>
<stop offset="1" stop-color="#40C0F0"/>
</linearGradient>
<linearGradient id="paint44_linear_2_4" x1="380.944" y1="170.9" x2="400.268" y2="170.9" gradientUnits="userSpaceOnUse">
<stop stop-color="#AE6480"/>
<stop offset="1" stop-color="#40C0F0"/>
</linearGradient>
<linearGradient id="paint45_linear_2_4" x1="551.872" y1="537.808" x2="620.1" y2="537.808" gradientUnits="userSpaceOnUse">
<stop stop-color="#AE6480"/>
<stop offset="1" stop-color="#40C0F0"/>
</linearGradient>
<linearGradient id="paint46_linear_2_4" x1="333.912" y1="650.086" x2="362.537" y2="650.086" gradientUnits="userSpaceOnUse">
<stop stop-color="#40C0F0"/>
<stop offset="1" stop-color="#AE6480"/>
</linearGradient>
<linearGradient id="paint47_linear_2_4" x1="381.645" y1="627.446" x2="402.197" y2="627.446" gradientUnits="userSpaceOnUse">
<stop stop-color="#40C0F0"/>
<stop offset="1" stop-color="#AE6480"/>
</linearGradient>
<linearGradient id="paint48_linear_2_4" x1="442.014" y1="633.413" x2="461.163" y2="633.413" gradientUnits="userSpaceOnUse">
<stop stop-color="#40C0F0"/>
<stop offset="1" stop-color="#AE6480"/>
</linearGradient>
<linearGradient id="paint49_linear_2_4" x1="210.247" y1="689.376" x2="227.991" y2="689.376" gradientUnits="userSpaceOnUse">
<stop stop-color="#40C0F0"/>
<stop offset="1" stop-color="#AE6480"/>
</linearGradient>
<linearGradient id="paint50_linear_2_4" x1="554.724" y1="682.843" x2="572.037" y2="682.843" gradientUnits="userSpaceOnUse">
<stop stop-color="#40C0F0"/>
<stop offset="1" stop-color="#AE6480"/>
</linearGradient>
<linearGradient id="paint51_linear_2_4" x1="149.14" y1="636.045" x2="166.453" y2="636.045" gradientUnits="userSpaceOnUse">
<stop stop-color="#40C0F0"/>
<stop offset="1" stop-color="#AE6480"/>
</linearGradient>
<linearGradient id="paint52_linear_2_4" x1="508.352" y1="711.509" x2="524.342" y2="711.509" gradientUnits="userSpaceOnUse">
<stop stop-color="#40C0F0"/>
<stop offset="1" stop-color="#AE6480"/>
</linearGradient>
<linearGradient id="paint53_linear_2_4" x1="602.064" y1="666.669" x2="637.182" y2="666.669" gradientUnits="userSpaceOnUse">
<stop stop-color="#AE6480"/>
<stop offset="1" stop-color="#40C0F0"/>
</linearGradient>
<linearGradient id="paint54_linear_2_4" x1="104.63" y1="605.743" x2="139.748" y2="605.743" gradientUnits="userSpaceOnUse">
<stop stop-color="#40C0F0"/>
<stop offset="1" stop-color="#AE6480"/>
</linearGradient>
<linearGradient id="paint55_linear_2_4" x1="121.214" y1="164.057" x2="154.227" y2="164.057" gradientUnits="userSpaceOnUse">
<stop stop-color="#40C0F0"/>
<stop offset="1" stop-color="#AE6480"/>
</linearGradient>
<linearGradient id="paint56_linear_2_4" x1="602.066" y1="155.282" x2="631.568" y2="155.282" gradientUnits="userSpaceOnUse">
<stop stop-color="#AE6480"/>
<stop offset="1" stop-color="#40C0F0"/>
</linearGradient>
<linearGradient id="paint57_linear_2_4" x1="334.075" y1="94.8056" x2="356.614" y2="91.1477" gradientUnits="userSpaceOnUse">
<stop stop-color="#AE6480"/>
<stop offset="1" stop-color="#40C0F0"/>
</linearGradient>
<linearGradient id="paint58_linear_2_4" x1="110.49" y1="605.744" x2="415.615" y2="605.744" gradientUnits="userSpaceOnUse">
<stop offset="0.1558" stop-color="#CEAE98"/>
<stop offset="0.3221" stop-color="#C4A997"/>
<stop offset="0.5901" stop-color="#AC9B91"/>
<stop offset="0.9247" stop-color="#858585"/>
<stop offset="0.9296" stop-color="#848584"/>
</linearGradient>
<linearGradient id="paint59_linear_2_4" x1="109.515" y1="605.744" x2="416.59" y2="605.744" gradientUnits="userSpaceOnUse">
<stop offset="0.1457" stop-color="#848584"/>
<stop offset="0.3647" stop-color="#8D8986"/>
<stop offset="0.7006" stop-color="#A5958A"/>
<stop offset="0.8141" stop-color="#AE9A8A"/>
</linearGradient>
</defs>
</svg>
